<?xml version="1.0" encoding="UTF-8"?>
<svg id="Layer_2" data-name="Layer 2" xmlns="http://www.w3.org/2000/svg" viewBox="0 0 84.74 78.67">
  <defs>
    <style>
      .cls-1 {
        fill: #fff;
      }

      .cls-2 {
        fill: #954c32;
      }

      .cls-3 {
        fill: #5f3220;
      }
    </style>
  </defs>
  <g id="_레이어_1" data-name="레이어 1">
    <rect class="cls-1" width="84.74" height="78.67"/>
    <path class="cls-3" d="m84.74,48.87v29.8H0v-29.79c5.16-3.32,11.43-6.02,18.47-7.92,3.19,4.23,12.86,7.31,24.28,7.31s20.83-2.99,24.14-7.14c6.79,1.88,12.84,4.53,17.85,7.74Z"/>
    <path class="cls-2" d="m41.36,32.69l-1.4,3.47c-.25.63-.45,1.29-.54,1.96-.41,3.31,1.79,4.49,4.48,4.12l.18-.03c2.8-.39,4.53-2.35,2.98-5.58-.21-.45-.49-.86-.79-1.25l-2.37-3.04c-.7-.91-1.85-2.1-2.55.36Z"/>
    <path d="m78.66,0s-.06.04-.1.06c-1.14.72-2.27,1.46-3.4,2.19-1.8,1.14-3.6,2.27-5.39,3.42-.73.48-1.31,1.12-1.89,1.76-.07.08-.1.19-.11.29-.17,1.23-.83,2.17-1.64,3.07-1.07,1.18-2.41,2.01-3.65,2.98-.45.35-.97.68-1.58.76-.1.02-.15.07-.16.16-.1.58-.53,1.02-.71,1.57-.05.13-.08.22.04.33.33.33.43.76.43,1.2,0,.28.07.51.26.71.33.34.52.76.59,1.22.03.2.15.34.28.48.31.34.57.71.71,1.17.21.7-.02,1.3-.67,1.64-.22.12-.4.05-.54-.12-.16-.18-.29-.39-.43-.59-.36-.5-.78-.95-1.17-1.42-.99-1.15-1.89-2.35-2.18-3.9-.02-.11-.02-.29-.18-.31-.14-.02-.15.16-.23.24-.38.44-.5.98-.5,1.54,0,.28-.05.55-.23.77-.12.14-.09.25.04.36.31.29.68.53.92.87.41.6.99.77,1.65.82.71.07,1.05.58,1.28,1.18.19.5-.42,1.37-1.07,1.14-1.24-.44-2.62-.51-3.72-1.35-.34-.26-.62-.54-.89-.85-.35-.4-.73-.75-1.13-1.07-.19-.15-.33-.33-.38-.58-.03-.14-.04-.36-.26-.28-.21.08-.27.29-.18.48.17.35.37.68.58,1.01.28.45.54.91.5,1.48-.01.13.08.21.15.3.32.37.63.73.94,1.1.37.46.51.97.42,1.56-.07.44-.35.71-.7.93-.16.11-.35.09-.54,0-.28-.14-.5-.35-.68-.6-.34-.48-.73-.89-1.2-1.23-.92-.66-1.38-1.65-1.82-2.65-.28-.64-.54-1.3-.88-1.93-.22-.42-.3-.86-.22-1.33.17-1.05.4-2.09.78-3.16-.71.44-1.45.68-2.12,1.05-.21.12-.28.38-.38.59-.71,1.37-1.41,2.75-2.13,4.11-.28.54-.63,1.03-1.25,1.24-.23.07-.46.11-.7.07-.5-.08-.7-.3-.71-.8,0-.33.01-.67.11-.98.45-1.37.82-2.76,1.44-4.07.29-.61.43-1.28.68-1.9.11-.29.28-.52.51-.71.77-.64,1.5-1.31,2.29-1.92.6-.47,1.3-.81,1.82-1.4.52-.6,1.11-1.13,1.72-1.63.12-.1.24-.2.39-.24,1.37-.37,2.51-1.2,3.74-1.85.91-.49,1.86-.93,2.78-1.39,1.19-.6,2.18-1.41,3.07-2.37.92-.98,1.79-2.02,2.77-2.94.09-.08.16-.18.22-.28h14.61Z"/>
  </g>
</svg>