<?xml version="1.0" encoding="UTF-8"?>
<svg id="Layer_2" data-name="Layer 2" xmlns="http://www.w3.org/2000/svg" viewBox="0 0 84.74 78.67">
  <defs>
    <style>
      .cls-1 {
        fill: #fff;
      }

      .cls-2 {
        fill: #2e5a2e;
      }

      .cls-3 {
        fill: #ab7335;
      }

      .cls-4 {
        fill: #5f3220;
      }
    </style>
  </defs>
  <g id="_레이어_1" data-name="레이어 1">
    <rect class="cls-1" width="84.74" height="78.67"/>
    <rect class="cls-3" x="36.75" y="34.66" width="12.08" height="22.46"/>
    <ellipse class="cls-2" cx="32.79" cy="29.99" rx="7.82" ry="7.27" transform="translate(-8.84 45.54) rotate(-62.93)"/>
    <ellipse class="cls-2" cx="43.82" cy="33.61" rx="7.82" ry="7.27" transform="translate(-6.05 57.34) rotate(-62.93)"/>
    <ellipse class="cls-2" cx="54.37" cy="28.36" rx="7.82" ry="7.27" transform="translate(4.38 63.87) rotate(-62.93)"/>
    <ellipse class="cls-2" cx="46.98" cy="18.06" rx="7.82" ry="7.27" transform="translate(9.52 51.68) rotate(-62.93)"/>
    <ellipse class="cls-2" cx="35.66" cy="18.8" rx="7.82" ry="7.27" transform="translate(2.69 42) rotate(-62.93)"/>
    <ellipse class="cls-2" cx="44.9" cy="24.62" rx="7.27" ry="3.71" transform="translate(-6.29 23.13) rotate(-27.07)"/>
    <path class="cls-4" d="m84.74,61.15v17.52H0v-17.52c9.83-6.39,22.61-10.59,36.75-11.47,1.5-.1,3.02-.15,4.56-.17.35-.01.71-.01,1.06-.01s.71,0,1.07.01c1.82.02,3.62.1,5.39.23,13.81.98,26.27,5.14,35.91,11.41Z"/>
  </g>
</svg>